<svg xmlns="http://www.w3.org/2000/svg" version="1.1" xmlns:xlink="http://www.w3.org/1999/xlink" xmlns:svgjs="http://svgjs.com/svgjs" width="1024" height="1024"><svg xmlns="http://www.w3.org/2000/svg" xmlns:xlink="http://www.w3.org/1999/xlink" width="1024" height="1024">
	<path fill="#082378" d="M445.41 680.565C467.429 680 489.636 680.528 511.673 680.57L635.889 680.905Q653.571 681.002 671.254 680.909C676.463 680.882 687.727 679.848 692.383 681.226C694.649 681.897 696.531 683.304 697.661 685.395C698.854 687.602 698.75 690.967 697.928 693.286C696.958 696.021 694.904 697.35 692.395 698.529C675.863 699.238 659.008 698.564 642.448 698.541L547.99 698.558L480.226 698.51C468.271 698.476 455.665 699.232 443.804 697.914C442.303 696.606 440.866 695.343 439.987 693.517C438.887 691.231 438.484 688.489 439.39 686.072C440.514 683.074 442.63 681.835 445.41 680.565Z"></path>
	<path fill="#082378" d="M445.377 735.595L626.782 735.605L669.027 735.492C676.276 735.467 687.422 734.319 694.212 736.18C695.734 737.469 697.095 738.714 697.972 740.541Q698.165 740.937 698.318 741.351Q698.47 741.764 698.58 742.191Q698.691 742.618 698.757 743.054Q698.824 743.49 698.847 743.93Q698.869 744.37 698.848 744.811Q698.826 745.251 698.76 745.687Q698.694 746.123 698.585 746.55Q698.476 746.977 698.324 747.391C697.144 750.662 695.013 752.086 691.966 753.456C673.829 754.384 655.307 753.609 637.133 753.545L546.081 753.51L472.052 753.458C465.417 753.434 450.75 754.569 445.085 752.877C442.658 752.151 440.562 750.621 439.458 748.302C438.355 745.983 438.41 743.256 439.364 740.897C440.543 737.982 442.551 736.695 445.377 735.595Z"></path>
	<path fill="#082378" d="M507.262 323.713C523.609 323.031 539.421 324.368 555.469 327.535C601.31 336.578 647.629 360.443 674.112 400.205Q675.014 401.544 675.883 402.905Q676.752 404.266 677.588 405.647Q678.423 407.029 679.224 408.431Q680.025 409.833 680.792 411.254Q681.558 412.675 682.29 414.114Q683.021 415.554 683.717 417.011Q684.413 418.468 685.072 419.942Q685.732 421.415 686.355 422.905Q686.979 424.394 687.565 425.898Q688.152 427.403 688.701 428.921Q689.251 430.439 689.763 431.97Q690.275 433.502 690.749 435.045Q691.223 436.589 691.659 438.143Q692.096 439.698 692.493 441.263Q692.891 442.827 693.25 444.402Q693.61 445.976 693.93 447.558Q694.251 449.141 694.532 450.731Q694.814 452.32 695.056 453.917Q695.299 455.513 695.502 457.115Q695.705 458.717 695.869 460.323Q696.032 461.929 696.156 463.539Q696.281 465.149 696.365 466.761Q696.45 468.374 696.495 469.988Q696.54 471.602 696.545 473.216Q696.55 474.831 696.516 476.445Q696.482 478.059 696.408 479.672Q696.334 481.285 696.22 482.896Q696.106 484.506 695.953 486.114Q695.8 487.721 695.608 489.324Q695.415 490.927 695.183 492.525Q694.951 494.123 694.68 495.715Q694.409 497.306 694.099 498.891C686.098 537.845 662.035 568.25 629.29 589.776C582.344 620.638 520.12 628.636 465.673 617.368L457.207 615.702L421.749 647.487C415.109 653.521 408.16 661.189 400.637 666.088C399.245 666.995 397.84 667.376 396.177 667.377Q395.705 667.375 395.235 667.324Q394.766 667.273 394.304 667.173Q393.842 667.073 393.394 666.925Q392.945 666.777 392.514 666.584Q392.083 666.39 391.675 666.153Q391.267 665.915 390.885 665.636Q390.504 665.357 390.154 665.04Q389.804 664.723 389.489 664.371C387.931 662.638 387.398 660.706 387.19 658.436C386.296 648.676 387.629 637.955 388.093 628.152C388.758 614.121 388.999 600.018 390.061 586.015Q380.29 578.083 370.943 569.656C345.014 546.259 326.996 512.702 325.332 477.503C323.745 443.938 338.552 410.779 360.979 386.275C399.16 344.558 451.976 326.307 507.262 323.713Z"></path>
	<path fill="#FEFEFE" d="M404.323 638.818C404.605 626.008 405.543 612.985 406.451 600.196C406.901 593.854 408.17 586.956 407.57 580.643C407.053 575.217 397.547 569.714 393.414 566.45C367.929 546.323 347.001 516.854 343.239 484.007C339.9 454.85 350.462 427.483 368.447 404.834C398.164 367.41 444.445 347.836 490.999 342.648C540.395 337.142 594.004 350.343 632.986 381.782C653.701 398.49 674.666 427.354 677.615 454.489C677.46 454.281 677.301 454.076 677.15 453.865C674.619 450.336 673.486 444.524 671.694 440.46C669.585 435.674 666.428 430.657 663.539 426.295C638.186 388.018 598.32 364.722 553.697 356.059C504.24 346.458 448.845 354.784 406.653 383.15C381.944 399.762 358.792 424.256 353.157 454.404C348.456 479.554 354.917 506.356 369.334 527.241C382.176 545.846 398.642 563.746 418.269 575.145Q417.116 597.644 414.312 619.998C419.614 616.155 443.241 599.653 447.94 599.779C433.156 612.51 419.183 626.136 404.323 638.818Z"></path>
	<path fill="#70C8F6" d="M418.269 575.145C398.642 563.746 382.176 545.846 369.334 527.241C354.917 506.356 348.456 479.554 353.157 454.404C358.792 424.256 381.944 399.762 406.653 383.15C448.845 354.784 504.24 346.458 553.697 356.059C598.32 364.722 638.186 388.018 663.539 426.295C666.428 430.657 669.585 435.674 671.694 440.46C673.486 444.524 674.619 450.336 677.15 453.865C677.301 454.076 677.46 454.281 677.615 454.489C678.956 458.988 678.838 464.58 678.932 469.249C679.337 489.356 675.785 507.55 666.204 525.318C647.03 560.878 612.446 584.356 574.359 595.634C531.231 608.403 497.574 607.115 454.254 596.816C451.948 597.593 450.016 598.511 447.94 599.779C443.241 599.653 419.614 616.155 414.312 619.998Q417.116 597.644 418.269 575.145Z"></path>
	<path fill="#082378" d="M594.52 448.653Q595.186 448.585 595.854 448.547Q596.522 448.509 597.191 448.501Q597.861 448.494 598.529 448.517Q599.198 448.54 599.865 448.593Q600.533 448.646 601.197 448.73Q601.861 448.813 602.52 448.927Q603.18 449.041 603.833 449.185Q604.487 449.328 605.133 449.501Q605.78 449.675 606.418 449.877Q607.056 450.08 607.684 450.311Q608.312 450.542 608.929 450.802Q609.545 451.061 610.15 451.349Q610.754 451.636 611.345 451.951Q611.936 452.266 612.512 452.607Q613.087 452.948 613.647 453.315Q614.207 453.682 614.749 454.074Q615.331 454.491 615.892 454.936Q616.453 455.381 616.99 455.854Q617.528 456.327 618.041 456.827Q618.553 457.326 619.041 457.851Q619.528 458.376 619.988 458.924Q620.448 459.473 620.88 460.044Q621.312 460.615 621.714 461.207Q622.117 461.799 622.489 462.41Q622.861 463.022 623.202 463.652Q623.543 464.281 623.852 464.927Q624.161 465.573 624.437 466.234Q624.713 466.894 624.955 467.568Q625.197 468.242 625.405 468.927Q625.613 469.612 625.786 470.307Q625.96 471.001 626.098 471.704Q626.236 472.406 626.338 473.115C627.51 480.897 625.679 488.799 620.935 495.127C615.834 501.93 608.727 505.676 600.388 506.837C593.187 507.064 587.055 505.671 581.074 501.496C574.735 497.072 569.835 490.419 568.642 482.663C567.441 474.85 569.592 466.659 574.226 460.297C579.317 453.309 586.229 449.973 594.52 448.653Z"></path>
	<path fill="#FEFEFE" d="M594.486 467.084C596.479 466.819 598.245 466.673 600.211 467.203C603.191 468.006 605.774 469.875 607.239 472.623Q607.5 473.12 607.708 473.641Q607.915 474.163 608.067 474.703Q608.219 475.243 608.313 475.796Q608.408 476.35 608.444 476.91Q608.48 477.47 608.457 478.03Q608.434 478.591 608.352 479.146Q608.271 479.702 608.132 480.245Q607.992 480.789 607.797 481.315C606.467 484.933 603.916 486.823 600.58 488.46C598.576 488.7 596.564 488.832 594.603 488.24C591.74 487.376 589.205 485.369 587.847 482.691Q587.616 482.235 587.431 481.758Q587.246 481.281 587.109 480.787Q586.973 480.294 586.886 479.79Q586.799 479.286 586.762 478.776Q586.726 478.265 586.74 477.754Q586.755 477.243 586.82 476.735Q586.885 476.228 587 475.729Q587.115 475.231 587.279 474.746C588.511 471.03 591.149 468.867 594.486 467.084Z"></path>
	<path fill="#082378" d="M508.033 448.671C514.187 448.061 521.181 449.998 526.503 453.078C533.001 456.84 537.853 462.931 539.722 470.253C541.702 478.012 540.263 486.956 535.99 493.719C531.118 501.433 523.789 505.175 515.16 506.994C507.471 507.533 500.415 506.015 494.105 501.459C487.517 496.702 482.813 488.795 481.733 480.742C480.743 473.353 483.091 465.556 487.59 459.653C492.732 452.904 499.876 449.826 508.033 448.671Z"></path>
	<path fill="#FEFEFE" d="M510.311 466.584C512.615 466.632 514.64 467.038 516.713 468.085Q517.211 468.331 517.679 468.629Q518.148 468.926 518.583 469.271Q519.018 469.616 519.415 470.005Q519.811 470.394 520.165 470.822Q520.518 471.25 520.824 471.714Q521.131 472.177 521.387 472.669Q521.643 473.162 521.846 473.679Q522.049 474.196 522.196 474.731C522.993 477.67 522.52 480.735 520.967 483.341C518.949 486.726 516.246 488.072 512.567 489.092C510.545 488.941 508.664 488.733 506.814 487.842C503.962 486.47 501.67 484.129 500.631 481.112Q500.465 480.632 500.347 480.137Q500.229 479.643 500.162 479.139Q500.094 478.635 500.077 478.127Q500.059 477.619 500.093 477.112Q500.126 476.605 500.21 476.103Q500.294 475.602 500.427 475.111Q500.561 474.621 500.742 474.146Q500.924 473.671 501.152 473.217C503.08 469.398 506.391 467.772 510.311 466.584Z"></path>
	<path fill="#082378" d="M423.507 448.164C430.069 447.513 436.766 449.225 442.394 452.597C449.379 456.782 454.12 463.142 456.024 471.048C457.87 478.711 456.77 486.616 452.601 493.363C447.674 501.336 440.279 505.433 431.385 507.51C423.101 507.98 415.905 506.874 408.971 502.03Q408.368 501.615 407.787 501.17Q407.205 500.726 406.646 500.253Q406.088 499.78 405.553 499.28Q405.018 498.78 404.509 498.254Q404 497.728 403.518 497.178Q403.035 496.627 402.581 496.053Q402.126 495.479 401.701 494.884Q401.275 494.288 400.88 493.672Q400.485 493.056 400.12 492.421Q399.756 491.786 399.423 491.134Q399.091 490.482 398.791 489.814Q398.492 489.147 398.225 488.465Q397.959 487.783 397.727 487.089Q397.495 486.394 397.298 485.689Q397.101 484.985 396.939 484.271Q396.776 483.557 396.65 482.836Q396.524 482.108 396.435 481.375Q396.347 480.642 396.295 479.906Q396.244 479.169 396.229 478.431Q396.215 477.693 396.239 476.955Q396.262 476.217 396.322 475.481Q396.383 474.745 396.481 474.013Q396.579 473.281 396.713 472.555Q396.848 471.829 397.02 471.111Q397.191 470.393 397.399 469.684Q397.606 468.975 397.849 468.278Q398.092 467.581 398.371 466.897Q398.649 466.213 398.961 465.544Q399.274 464.875 399.62 464.223Q399.966 463.57 400.344 462.936Q400.723 462.302 401.133 461.688Q401.543 461.074 401.984 460.482C407.234 453.381 414.869 449.414 423.507 448.164Z"></path>
	<path fill="#FEFEFE" d="M424.233 467.047C426.467 466.852 428.527 466.812 430.632 467.713C433.678 469.017 436.163 471.534 437.258 474.676C438.251 477.528 438.136 480.59 436.738 483.287C435.03 486.586 432.439 487.972 429.016 489.034C426.785 489.114 424.553 488.937 422.47 488.082C419.468 486.849 416.916 484.427 415.729 481.385Q415.533 480.889 415.391 480.375Q415.248 479.861 415.161 479.335Q415.074 478.808 415.043 478.276Q415.012 477.744 415.038 477.211Q415.063 476.678 415.145 476.151Q415.227 475.624 415.364 475.108Q415.501 474.593 415.692 474.095Q415.883 473.597 416.126 473.122C417.863 469.746 420.762 468.19 424.233 467.047Z"></path>
	<path fill="#082378" d="M496.98 106.709C511.877 105.325 527.789 106.396 542.656 107.89Q545.722 108.194 548.782 108.554Q551.841 108.915 554.894 109.332Q557.946 109.749 560.99 110.222Q564.035 110.696 567.07 111.225Q570.105 111.755 573.129 112.341Q576.154 112.926 579.167 113.568Q582.18 114.209 585.181 114.907Q588.182 115.604 591.17 116.356Q594.157 117.109 597.13 117.917Q600.103 118.725 603.061 119.587Q606.019 120.45 608.96 121.367Q611.901 122.284 614.825 123.256Q617.748 124.227 620.653 125.252Q623.559 126.278 626.444 127.357Q629.33 128.436 632.195 129.568Q635.061 130.7 637.904 131.885Q640.748 133.07 643.57 134.307Q646.391 135.544 649.189 136.834Q651.987 138.123 654.761 139.464Q657.535 140.805 660.283 142.197Q663.032 143.589 665.754 145.032Q668.476 146.474 671.171 147.967Q673.866 149.46 676.533 151.002Q679.2 152.544 681.838 154.136Q684.476 155.727 687.084 157.367Q689.692 159.007 692.27 160.695Q694.847 162.383 697.393 164.118Q699.938 165.853 702.451 167.635Q704.965 169.417 707.444 171.246Q709.924 173.074 712.369 174.948Q714.815 176.821 717.225 178.74Q719.636 180.659 722.01 182.622C733.241 191.908 752.608 208.098 758.283 221.023C760.446 225.949 761.132 230.974 761.637 236.284C767.486 244.448 773.838 252.238 779.293 260.685Q783.562 267.398 787.509 274.305Q791.455 281.212 795.07 288.299Q798.685 295.385 801.961 302.635Q805.236 309.885 808.165 317.281Q811.093 324.678 813.669 332.205Q816.244 339.732 818.459 347.372Q820.675 355.013 822.527 362.749Q824.379 370.486 825.862 378.302Q828.099 390.596 829.284 403.036C829.738 408.062 829.68 413.486 830.622 418.423C831.571 423.396 834.316 427.774 835.285 432.942Q839.14 432.695 843.003 432.666Q844.044 432.67 845.086 432.7Q846.127 432.73 847.167 432.786Q848.207 432.841 849.245 432.923Q850.283 433.004 851.319 433.111Q852.355 433.217 853.388 433.349Q854.421 433.482 855.451 433.639Q856.48 433.797 857.506 433.98Q858.531 434.163 859.552 434.371Q860.572 434.579 861.587 434.812Q862.602 435.045 863.611 435.304Q864.62 435.562 865.622 435.845Q866.625 436.127 867.62 436.435Q868.615 436.742 869.602 437.074Q870.589 437.406 871.568 437.762Q872.547 438.118 873.516 438.499Q874.486 438.879 875.446 439.283Q876.406 439.686 877.356 440.114Q878.306 440.541 879.245 440.992Q880.184 441.443 881.111 441.916Q882.039 442.39 882.954 442.886Q883.87 443.383 884.773 443.901Q885.676 444.42 886.566 444.961Q887.456 445.502 888.333 446.064Q889.209 446.627 890.072 447.211Q890.934 447.795 891.782 448.4Q892.629 449.005 893.462 449.631Q894.294 450.257 895.111 450.903Q895.928 451.549 896.729 452.215Q897.53 452.881 898.314 453.566Q899.098 454.252 899.865 454.956Q900.632 455.661 901.381 456.384Q902.131 457.107 902.862 457.849C913.231 468.424 921.582 482.434 925.361 496.79C929.891 514.004 928.162 537.321 928.157 555.349L928.055 618.102C927.804 640.67 919.415 660.965 903.165 676.737C891.527 688.035 875.346 697.291 859.077 699.392C851.195 700.409 843.108 699.997 835.175 699.904C834.156 705.855 832.338 710.947 828.182 715.466C822.244 721.924 815.307 723.469 806.95 723.766C806.838 735.72 807.364 747.697 807.402 759.657C807.425 766.716 807.373 773.747 806.335 780.747C803.078 802.708 791.735 825.165 776.038 840.835C762.851 853.999 746.126 864.073 728.064 868.798C706.572 874.422 672.36 872.554 649.312 872.55L560.761 872.613C558.952 879.351 556.621 885.515 552.8 891.393C545.155 903.154 533.016 912.37 519.116 915.207C505.393 918.007 489.379 915.565 477.657 907.704C465.921 899.833 457.492 886.809 454.921 872.942C452.257 858.573 455.629 844.706 463.954 832.758C472.243 820.862 485.146 813.16 499.389 810.703C512.992 808.358 527.966 811.966 539.176 819.967C551.092 828.473 557.89 841.081 560.339 855.264C604.917 854.116 649.653 854.83 694.246 854.96C722.168 855.041 744.404 847.679 764.431 827.56C794.481 797.373 789.501 762.601 789.279 724.045L779.327 724.147C771.848 724.166 764.421 722.604 759.003 716.996C755.747 713.626 753.459 708.816 752.858 704.167C751.851 696.367 752.464 687.917 752.457 680.021L752.602 631.654L752.968 481.25L752.927 452.554C752.847 444.717 751.922 436.109 753.462 428.423Q753.799 426.789 754.325 425.206Q754.851 423.623 755.559 422.113Q756.266 420.602 757.146 419.184Q758.025 417.767 759.064 416.462C764.804 409.284 772.292 407.258 781.005 406.421C779.483 394.832 776.491 383.31 773.226 372.102C763.567 338.944 749.262 307.292 728.024 279.834C718.003 281.79 708.733 281 699.743 275.986C689.786 270.434 679.001 256.763 669.818 248.708C638.385 221.136 596.903 201.545 555.817 194.074Q552.737 193.526 549.644 193.057Q546.551 192.587 543.448 192.197Q540.344 191.807 537.231 191.495Q534.118 191.184 530.999 190.952Q527.879 190.72 524.754 190.567Q521.63 190.415 518.503 190.342Q515.375 190.269 512.247 190.275Q509.119 190.282 505.991 190.368Q502.864 190.454 499.741 190.62Q496.617 190.786 493.498 191.031Q490.379 191.276 487.268 191.601Q484.157 191.925 481.054 192.329Q477.952 192.732 474.861 193.214Q471.771 193.697 468.693 194.258Q465.615 194.819 462.553 195.458Q459.491 196.097 456.446 196.813Q453.401 197.53 450.375 198.324Q447.349 199.118 444.344 199.989Q441.34 200.859 438.358 201.806Q435.377 202.753 432.42 203.776Q429.464 204.798 426.534 205.895Q423.605 206.993 420.704 208.164Q417.804 209.336 414.934 210.581Q412.064 211.826 409.227 213.143Q406.389 214.461 403.587 215.85Q400.784 217.24 398.017 218.7Q395.251 220.16 392.522 221.691Q389.794 223.221 387.105 224.82Q384.417 226.419 381.77 228.086Q379.122 229.753 376.519 231.487Q373.915 233.221 371.356 235.02Q368.797 236.82 366.285 238.684Q354.298 247.375 343.658 257.671C338.48 262.707 333.728 268.869 327.727 272.925C317.19 280.046 306.891 280.444 294.785 278.16C290.125 286.312 284.008 293.533 279.311 301.665C261.271 332.895 248.501 369.508 245.31 405.57C247.149 406.276 249.003 406.973 250.8 407.782C258.771 411.375 265.432 417.888 268.339 426.222C269.586 429.796 270.226 433.711 270.392 437.486C271.145 454.513 270.469 471.856 270.476 488.924L270.537 583.838L270.574 657.338C270.587 670.432 271.072 683.783 270.37 696.844C270.165 700.641 269.216 704.086 267.569 707.501C263.774 715.366 258.065 721.036 249.749 723.903C240.385 727.131 215.468 726.853 206.674 722.451C197.326 717.772 192.181 709.991 188.915 700.325Q181.692 701.358 174.395 701.354C152.733 701.237 134.081 692.597 118.976 677.218Q117.058 675.238 115.278 673.133Q113.498 671.029 111.863 668.809Q110.229 666.589 108.749 664.263Q107.268 661.938 105.947 659.519Q104.627 657.099 103.473 654.595Q102.318 652.092 101.336 649.517Q100.353 646.941 99.546 644.305Q98.7392 641.669 98.112 638.985C93.8988 621.361 95.8789 591.655 95.9289 572.623C95.9778 554.029 95.4662 535.397 95.7295 516.812C96.0665 493.032 104.242 471.789 121.529 455.206C139.631 437.84 163.167 431.555 187.676 431.982C189.106 427.195 191.407 423.389 194.011 419.176C194.212 359.236 222.37 281.801 262.609 237.032C263.854 227.015 265.936 218.534 272.824 210.815C278.085 204.919 284.371 199.568 290.131 194.148Q292.3 192.135 294.505 190.161Q296.71 188.188 298.951 186.254Q301.191 184.32 303.465 182.427Q305.739 180.533 308.047 178.681Q310.355 176.829 312.696 175.018Q315.036 173.207 317.409 171.439Q319.782 169.67 322.186 167.945Q324.59 166.219 327.025 164.537Q329.459 162.854 331.924 161.216Q334.388 159.578 336.882 157.984Q339.375 156.39 341.896 154.841Q344.418 153.292 346.967 151.788Q349.516 150.284 352.091 148.827Q354.666 147.369 357.267 145.957Q359.869 144.546 362.495 143.182Q365.12 141.817 367.77 140.5Q370.42 139.183 373.094 137.913Q375.767 136.644 378.462 135.422Q381.158 134.201 383.875 133.028Q386.592 131.855 389.329 130.731Q392.067 129.607 394.824 128.532Q397.581 127.457 400.357 126.432Q403.133 125.406 405.927 124.431Q408.721 123.456 411.532 122.53Q414.343 121.605 417.17 120.731Q419.997 119.856 422.84 119.032Q425.682 118.208 428.539 117.435Q431.395 116.663 434.265 115.941Q437.135 115.22 440.018 114.55Q442.9 113.88 445.794 113.262Q448.688 112.644 451.593 112.077Q454.498 111.511 457.412 110.997C470.505 108.699 483.725 107.541 496.98 106.709Z"></path>
	<path fill="#FEFEFE" d="M478.039 882.504C473.546 876.455 470.961 867.758 471.603 860.246C472.404 850.879 477.671 842.343 484.822 836.423C492.037 830.45 501.411 826.884 510.845 827.872C520.507 828.883 529.69 834.413 535.802 841.832C535.635 841.811 535.465 841.807 535.3 841.769C532.797 841.189 529.337 838.427 526.834 837.273C517.791 833.103 506.205 834.289 497.476 838.902C488.34 843.729 481.705 852.733 478.764 862.544C476.68 869.498 477.967 875.495 478.039 882.504Z"></path>
	<path fill="#FEFEFE" d="M206.795 442.668C206.785 437.765 206.365 431.801 209.457 427.675C211.557 424.873 215.554 423.602 218.87 423.145C226.46 422.1 241.644 421.737 247.674 426.617C250.297 428.74 251.704 431.607 252.057 434.924C251.891 437.461 251.797 439.947 251.84 442.492C236.795 442.251 221.84 441.953 206.795 442.668Z"></path>
	<path fill="#FEFEFE" d="M770.435 435.789C770.608 432.396 771.285 428.924 773.887 426.506C779.129 421.635 795.511 422.784 802.342 423.326C806.698 423.671 810.887 424.836 813.73 428.372C817.31 432.823 817.262 438.512 817.144 443.912C801.664 443.064 786.149 443.926 770.658 443.971C770.684 441.228 770.588 438.526 770.435 435.789Z"></path>
	<path fill="#FEFEFE" d="M834.859 450.51C856.467 450.453 873.582 454.386 889.318 470.184C899.908 480.816 910.326 498.038 910.081 513.573C910.076 513.839 910.064 514.104 910.056 514.369C909.473 518.985 909.89 523.948 909.623 528.641C905.528 517.158 901.333 506.717 892.744 497.755C875.194 479.443 859.835 474.56 835.21 474.121C835.227 471.884 835.094 469.7 834.918 467.472C834.744 461.817 834.813 456.166 834.859 450.51Z"></path>
	<path fill="#FEFEFE" d="M113.61 530.697C113.487 524.887 113.312 518.994 113.613 513.188Q113.689 511.533 113.848 509.884Q114.007 508.235 114.25 506.596Q114.492 504.957 114.817 503.332Q115.141 501.708 115.548 500.102Q115.954 498.495 116.441 496.912Q116.927 495.328 117.493 493.771Q118.059 492.214 118.703 490.688Q119.347 489.161 120.067 487.669Q120.787 486.177 121.582 484.723Q122.376 483.269 123.243 481.857Q124.11 480.446 125.047 479.079Q125.984 477.713 126.989 476.396Q127.993 475.078 129.063 473.813Q130.133 472.548 131.265 471.339Q132.398 470.129 133.59 468.979Q134.782 467.828 136.03 466.739C150.787 453.615 169.262 448.683 188.676 449.913C187.977 456.303 188.506 462.968 188.386 469.399C171.691 468.826 155.658 472.699 143.124 484.299C129.018 497.354 125.842 507.275 119.731 524.557C118.537 527.933 117.423 532.348 115.035 535.034L115.065 535.067L113.893 534.126C113.922 533.828 113.955 533.53 113.98 533.231C114.063 532.268 113.931 531.616 113.61 530.697Z"></path>
	<path fill="#FEFEFE" d="M755.649 258.738C758.819 261.614 763.129 269.871 765.705 273.765C790.806 311.701 808.22 361.097 810.575 406.684C807.395 406.542 804.2 406.534 801.017 406.473C799.518 405.828 798.694 399.449 798.374 397.859C788.514 348.845 772.225 313.934 746.144 271.861C750.287 267.838 753.127 263.933 755.649 258.738Z"></path>
	<path fill="#FEFEFE" d="M268.771 258.343C272.588 262.013 271.701 265.572 278.396 270.381C273.758 276.347 270.035 283.162 266.171 289.644Q264.171 292.935 262.263 296.279Q260.354 299.623 258.539 303.019Q256.724 306.415 255.003 309.86Q253.282 313.305 251.657 316.795Q250.032 320.286 248.504 323.821Q246.976 327.355 245.546 330.93Q244.116 334.505 242.785 338.119Q241.455 341.732 240.224 345.381Q238.994 349.03 237.864 352.711Q236.735 356.392 235.708 360.103Q234.681 363.814 233.756 367.552Q232.832 371.29 232.011 375.052Q231.19 378.814 230.473 382.598Q229.757 386.381 229.145 390.183Q228.533 393.984 228.026 397.801Q227.519 401.618 227.118 405.448L220.588 405.575C217.867 405.79 215.156 406.148 212.445 406.467C214.522 387.473 217.575 368.958 222.735 350.528C231.01 320.974 249.242 282.181 268.771 258.343Z"></path>
	<path fill="#B5C1D6" d="M188.676 449.913C189.834 458.07 188.955 467.163 188.891 475.431L188.889 517.333L188.907 682.879C170.728 685.363 153.243 681.763 138.405 670.594C125.378 660.788 116.275 644.357 114.133 628.254C113.269 621.763 113.17 614.663 113.869 608.156C115.175 609.947 115.945 612.569 116.91 614.591C120.125 621.326 123.757 627.371 129.101 632.64C145.986 649.282 166.606 647.535 188.427 647.475L188.386 469.399C188.506 462.968 187.977 456.303 188.676 449.913Z"></path>
	<path fill="#B5C1D6" d="M910.103 600.769C911.964 622.293 909.409 643.028 895.02 660.059Q894.023 661.234 892.97 662.359Q891.917 663.483 890.809 664.554Q889.702 665.626 888.543 666.641Q887.384 667.656 886.177 668.614Q884.969 669.571 883.716 670.467Q882.463 671.363 881.167 672.197Q879.871 673.03 878.536 673.799Q877.2 674.568 875.829 675.27Q874.457 675.972 873.053 676.605Q871.648 677.238 870.214 677.802Q868.78 678.365 867.32 678.857Q865.86 679.35 864.377 679.769Q862.894 680.189 861.393 680.535Q859.892 680.881 858.375 681.152Q856.858 681.424 855.33 681.62Q853.802 681.817 852.266 681.938C846.514 682.39 840.732 682.181 834.975 681.905L834.697 644.801C834.626 637.895 834.046 630.287 834.913 623.455C835.675 630.896 835.158 638.801 835.131 646.294C845.902 646.42 857.207 646.966 867.723 644.315C883.885 640.241 896.812 630.118 903.997 615.041C906.028 610.778 907.187 605.436 909.639 601.491C909.79 601.248 909.948 601.01 910.103 600.769Z"></path>
	<path fill="#B5C1D6" d="M206.943 647.431C216.164 647.425 225.573 648.098 234.768 647.573C242.654 647.124 247.533 643.391 252.558 637.741L252.658 677.707C252.682 684.122 253.422 691.628 252.316 697.919Q252.159 698.829 251.868 699.705Q251.577 700.581 251.158 701.404Q250.74 702.227 250.203 702.978Q249.665 703.729 249.022 704.391C245.517 708.066 240.999 708.605 236.174 708.592C229.25 708.573 216.178 710.06 211.13 704.66C209.068 702.455 207.848 699.541 207.279 696.607C206.223 691.167 206.817 684.96 206.838 679.407C206.877 668.751 207.029 658.086 206.943 647.431Z"></path>
	<path fill="#B5C1D6" d="M817.027 645.984L816.919 679.897C816.928 685.913 817.452 692.304 816.845 698.262C816.6 700.662 816.148 702.925 814.76 704.926C813.068 705.958 811.653 706.438 809.683 706.713C805.347 707.317 779.422 707.191 775.172 706.24C773.875 705.95 773.002 705.585 771.995 704.683C771.031 702.82 770.634 701.084 770.418 698.995C769.737 692.395 770.242 685.281 770.257 678.632C770.282 667.788 770.075 656.903 770.368 646.063Q793.697 645.893 817.027 645.984Z"></path>
	<path fill="#70C8F6" d="M478.039 882.504C477.967 875.495 476.68 869.498 478.764 862.544C481.705 852.733 488.34 843.729 497.476 838.902C506.205 834.289 517.791 833.103 526.834 837.273C529.337 838.427 532.797 841.189 535.3 841.769C535.465 841.807 535.635 841.811 535.802 841.832C541.62 848.767 543.913 857.711 543.078 866.664C542.19 876.185 537.449 884.607 530.047 890.616Q529.356 891.184 528.637 891.717Q527.919 892.251 527.174 892.747Q526.43 893.244 525.662 893.703Q524.894 894.162 524.104 894.583Q523.315 895.003 522.505 895.384Q521.695 895.765 520.867 896.105Q520.04 896.445 519.196 896.743Q518.352 897.041 517.495 897.297Q516.638 897.554 515.769 897.767Q514.9 897.98 514.021 898.15Q513.143 898.32 512.257 898.445Q511.371 898.571 510.48 898.653Q509.589 898.735 508.695 898.772Q507.801 898.809 506.906 898.802Q506.011 898.795 505.118 898.744Q504.225 898.692 503.335 898.596C494.218 897.609 485.934 892.765 480.199 885.653C479.413 884.678 478.631 883.607 478.039 882.504Z"></path>
	<path fill="#FEFEFE" d="M288.054 254.051C283.611 248.668 280.474 242.801 281.195 235.546C281.581 231.671 282.966 228.179 285.051 224.913C290.87 215.798 310.455 199.778 319.445 192.7C330.413 184.064 341.746 175.659 353.725 168.465Q356.416 166.848 359.139 165.285Q361.863 163.723 364.617 162.217Q367.372 160.71 370.157 159.26Q372.941 157.81 375.755 156.418Q378.569 155.025 381.41 153.69Q384.252 152.355 387.12 151.078Q389.988 149.801 392.882 148.583Q395.776 147.364 398.694 146.206Q401.612 145.047 404.552 143.948Q407.493 142.848 410.456 141.81Q413.419 140.771 416.402 139.792Q419.385 138.814 422.388 137.897Q425.391 136.98 428.411 136.124Q431.432 135.268 434.47 134.474Q437.507 133.68 440.56 132.948Q443.614 132.216 446.681 131.546Q449.748 130.877 452.829 130.27Q455.909 129.663 459.001 129.119Q462.093 128.576 465.196 128.095Q468.299 127.614 471.41 127.197Q474.522 126.779 477.642 126.426Q480.761 126.072 483.887 125.782Q487.014 125.492 490.145 125.265Q493.277 125.039 496.412 124.877Q499.547 124.714 502.685 124.616Q505.823 124.518 508.963 124.483Q512.102 124.449 515.242 124.479Q518.381 124.508 521.52 124.602Q524.658 124.696 527.793 124.853Q530.929 125.011 534.061 125.233Q537.193 125.454 540.319 125.74Q543.446 126.025 546.566 126.374Q549.425 126.719 552.277 127.116Q555.13 127.513 557.974 127.962Q560.819 128.41 563.655 128.91Q566.491 129.41 569.318 129.961Q572.144 130.512 574.96 131.113Q577.777 131.715 580.581 132.368Q583.386 133.021 586.179 133.724Q588.971 134.428 591.751 135.181Q594.53 135.935 597.296 136.739Q600.061 137.543 602.811 138.397Q605.562 139.25 608.296 140.154Q611.031 141.057 613.748 142.009Q616.466 142.962 619.166 143.964Q621.866 144.965 624.547 146.015Q627.229 147.065 629.891 148.164Q632.553 149.262 635.195 150.409Q637.837 151.555 640.457 152.749Q643.078 153.943 645.676 155.184Q648.275 156.426 650.851 157.713Q653.426 159.001 655.978 160.336Q658.531 161.67 661.058 163.05Q663.585 164.43 666.088 165.856Q668.59 167.282 671.066 168.752Q673.542 170.223 675.991 171.738Q678.44 173.253 680.861 174.812Q683.282 176.372 685.675 177.974Q688.067 179.577 690.43 181.223Q692.794 182.868 695.127 184.557Q697.46 186.245 699.762 187.975Q702.064 189.705 704.335 191.476Q706.605 193.247 708.844 195.06Q711.082 196.872 713.287 198.724C721.533 205.699 731.088 213.391 737.711 221.969C741.938 227.444 744.307 233.989 743.375 240.958C742.551 247.127 739.001 253.616 734.018 257.471C733.336 257.999 733.312 257.991 732.68 258.361L732.386 257.25C733.297 255.624 734.442 253.835 734.891 252.018C735.904 247.912 734.833 243.623 732.563 240.141C727.889 232.972 720.269 226.755 714.036 220.885C673.984 183.165 618.378 155.281 564.339 145.043C520.087 136.659 468.573 139.911 425.789 153.842C397.587 163.024 370.246 177.184 345.785 193.872C329.655 204.876 302.339 226.356 292.481 242.448C290.172 246.217 288.867 249.719 288.054 254.051Z"></path>
	<path fill="#D5E7FA" d="M252.057 434.924C252.964 442.016 252.414 449.659 252.422 456.825L252.456 498.279L252.558 637.741C247.533 643.391 242.654 647.124 234.768 647.573C225.573 648.098 216.164 647.425 206.943 647.431L206.795 442.668C221.84 441.953 236.795 442.251 251.84 442.492C251.797 439.947 251.891 437.461 252.057 434.924Z"></path>
	<path fill="#D5E7FA" d="M770.368 646.063C770.884 629.937 770.467 613.649 770.456 597.508L770.17 490.131L770.091 454.742C770.075 448.554 769.522 441.89 770.435 435.789C770.588 438.526 770.684 441.228 770.658 443.971C786.149 443.926 801.664 443.064 817.144 443.912L817.027 645.984Q793.697 645.893 770.368 646.063Z"></path>
	<path fill="#D5E7FA" d="M834.918 467.472C835.094 469.7 835.227 471.884 835.21 474.121C859.835 474.56 875.194 479.443 892.744 497.755C901.333 506.717 905.528 517.158 909.623 528.641C909.89 523.948 909.473 518.985 910.056 514.369C911.443 524.355 910.453 537.321 910.448 547.68C910.439 565.303 911.086 583.183 910.103 600.769C909.948 601.01 909.79 601.248 909.639 601.491C907.187 605.436 906.028 610.778 903.997 615.041C896.812 630.118 883.885 640.241 867.723 644.315C857.207 646.966 845.902 646.42 835.131 646.294C835.158 638.801 835.675 630.896 834.913 623.455C834.469 616.019 834.849 608.319 834.855 600.863L834.861 554.535L834.626 499.318C834.607 488.753 834.239 478.009 834.918 467.472Z"></path>
	<path fill="#D5E7FA" d="M188.386 469.399L188.427 647.475C166.606 647.535 145.986 649.282 129.101 632.64C123.757 627.371 120.125 621.326 116.91 614.591C115.945 612.569 115.175 609.947 113.869 608.156C113.098 599.759 113.727 590.828 113.718 582.383L113.61 530.697C113.931 531.616 114.063 532.268 113.98 533.231C113.955 533.53 113.922 533.828 113.893 534.126L115.065 535.067L115.035 535.034C117.423 532.348 118.537 527.933 119.731 524.557C125.842 507.275 129.018 497.354 143.124 484.299C155.658 472.699 171.691 468.826 188.386 469.399Z"></path>
	<path fill="#D5E7FA" d="M288.054 254.051C288.867 249.719 290.172 246.217 292.481 242.448C302.339 226.356 329.655 204.876 345.785 193.872C370.246 177.184 397.587 163.024 425.789 153.842C468.573 139.911 520.087 136.659 564.339 145.043C618.378 155.281 673.984 183.165 714.036 220.885C720.269 226.755 727.889 232.972 732.563 240.141C734.833 243.623 735.904 247.912 734.891 252.018C734.442 253.835 733.297 255.624 732.386 257.25L732.68 258.361C732.639 258.411 732.607 258.471 732.557 258.512C729.056 261.372 724.703 262.831 720.208 262.865C706.641 262.968 698.254 250.315 689.338 241.874Q685.521 238.33 681.565 234.942Q677.609 231.554 673.521 228.327Q669.434 225.099 665.22 222.037Q661.006 218.976 656.674 216.085Q652.341 213.194 647.897 210.479Q643.452 207.763 638.903 205.227Q634.353 202.692 629.706 200.34Q625.059 197.988 620.322 195.823Q615.584 193.659 610.764 191.685Q605.944 189.712 601.049 187.932Q596.154 186.153 591.192 184.571Q586.23 182.988 581.208 181.605Q576.187 180.222 571.114 179.041Q566.041 177.86 560.925 176.882Q555.81 175.905 550.659 175.132Q545.508 174.36 540.33 173.794Q535.153 173.228 529.957 172.869Q524.761 172.51 519.555 172.359Q514.348 172.208 509.14 172.265Q503.932 172.322 498.73 172.588Q493.529 172.853 488.342 173.325Q483.155 173.798 477.991 174.478Q472.827 175.157 467.694 176.043Q462.562 176.928 457.469 178.018Q452.375 179.107 447.33 180.4Q442.284 181.692 437.294 183.185Q432.304 184.677 427.378 186.368Q422.452 188.059 417.597 189.945Q412.742 191.832 407.967 193.911Q403.191 195.989 398.502 198.257Q393.814 200.525 389.219 202.979Q384.625 205.432 380.132 208.067C365.345 216.636 350.612 227.024 337.97 238.504C331.254 244.603 325.124 252.678 317.633 257.7C313.896 260.206 310.016 261.548 305.505 261.581C298.567 261.632 292.884 258.865 288.054 254.051Z"></path>
</svg><style>@media (prefers-color-scheme: light) { :root { filter: none; } }
</style></svg>